# xmcd
#
# Track frame offsets:
# 150
# 14554
# 31814
# 43352
# 47304
# 69392
# 76047
# 86481
# 108833
# 123290
# 139817
# 159751
# 174761
#
# Disc length: 2666 seconds
#
#
# Revision: 0
# Processed by: cddbd v1.4PL0 Copyright (c) Steve Scherf et al.
# Submitted via: FreeRIP 2.00 
#
DISCID=900a680d
DTITLE=Kev Russell's Junker - Buttermilk and Rifles
DYEAR=2002
DGENRE=Alt Country
TTITLE0=Virgin Of The Cobra
TTITLE1=Twilight Of Song
TTITLE2=(sombody bring me a flower) I'm A Robot
TTITLE3=Robot Reprise
TTITLE4=Way Fallen Stranger
TTITLE5=Shoetie Rag
TTITLE6=Sam Morgan
TTITLE7=Milk and Tears
TTITLE8=Ashes In M'Beard
TTITLE9=No More The Moon Shines On Lorena
TTITLE10=Imbibing My Prescriptions
TTITLE11=Church On Fire
TTITLE12=Blackfoot
EXTD=
EXTT0=
EXTT1=
EXTT2=
EXTT3=
EXTT4=
EXTT5=
EXTT6=
EXTT7=
EXTT8=
EXTT9=
EXTT10=
EXTT11=
EXTT12=
PLAYORDER=
